<svg xmlns="http://www.w3.org/2000/svg" width="349" height="348" viewBox="0 0 349 348">
    <path fill="#FFF" fill-rule="evenodd" d="M173.678 0L51.682 50.397l-1.163 1.15L0 173.185v1.639l50.519 121.64 1.163 1.149L173.678 348h1.622l121.997-50.386 1.152-1.15L349 174.825v-1.638l-50.55-121.64-1.153-1.15L175.3 0h-1.622zm.817 4L220 50h-91l45.495-46zM184 7l102 42h-59.753L184 7zm-19 0l-42.247 42H63L165 7zm65 47h64v64l-64-64zM55 222.99v-98.98L125.288 54h99.424L295 123.988v99.024L224.712 293h-99.424L55 222.99zM55 54h64l-64 64V54zm243 67.749V62l42 102-42-42.251zM50 62v59.755L8 164 50 62zm248 67l46 45-46 45v-90zM4 174l46-45v90L4 174zm294 51.258L340 183l-42 102v-59.742zM8 183l42 42.251V285L8 183zm47 46l64 64H55v-64zm239 0v64h-64l64-64zm-67.753 69H286l-102 42 42.247-42zM129 297h91l-45.505 46L129 297zm-66 1h59.753L165 340 63 298z"/>
</svg>
