<svg xmlns="http://www.w3.org/2000/svg" width="309" height="267" viewBox="0 0 309 267">
    <g fill="#FFF" fill-rule="evenodd">
        <path d="M66.287 55.643l87.736 152.09 87.69-152.09H66.287zM154.023 215L60 52.01 248 52l-93.977 163zM30 0l18.403 32 3.13-1.823L36.298 3.646h235.414l-15.209 26.467 3.14 1.832L278 0zM0 52l124.528 215L143 235.123l-3.144-1.817-15.328 26.436L6.315 55.634H36.88V52zM272.038 52v3.633h30.636l-118.234 204.1-15.295-26.388-3.145 1.826L184.44 267 307.414 54.725 309 52z"/>
    </g>
</svg>
