<svg xmlns="http://www.w3.org/2000/svg" width="305" height="265" viewBox="0 0 305 265">
    <path fill="#FFF" fill-rule="evenodd" d="M230.917 261.467l34.639-60.079 34.621 60.079h-69.26zm-37.672-61.837h69.252l-34.63 60.07-34.622-60.07zm-37.699 61.837l34.64-60.088 34.639 60.088h-69.279zM80.184 134.243h144.632L152.496 259.7 80.184 134.243zm-.009 127.224l34.64-60.088 34.639 60.088H80.175zM42.503 199.63h69.252L77.134 259.7l-34.63-60.07zm-37.69 61.837l34.631-60.079 34.64 60.079H4.813zm72.32-125.466l34.631 60.096h-69.27l34.64-60.096zm37.69-65.378l34.631 60.078h-69.27l34.64-60.078zm72.303-1.776l-34.63 60.088-34.622-60.088h69.252zm-34.63-63.603l34.621 60.07h-69.234l34.613-60.07zm72.32 125.457h-69.27l34.63-60.078 34.64 60.078zm37.69 65.396h-69.27l34.63-60.096 34.64 60.096zM191.71 66.215v-.009c0-.008-.01-.008-.01-.008L154.022.828c-.617-1.104-2.425-1.104-3.042 0l-37.68 65.37s-.01 0-.01.008v.01L.238 262.358a1.741 1.741 0 0 0 0 1.758c.309.547.9.883 1.525.883h301.474c.626 0 1.216-.336 1.525-.883a1.741 1.741 0 0 0 0-1.758L191.711 66.215z"/>
</svg>
