<svg xmlns="http://www.w3.org/2000/svg" width="253" height="29" viewBox="0 0 253 29">
    <path fill="#B19F8B" fill-rule="evenodd" d="M243.252 9.31h2.393c.254 0 .477-.23.477-.492V.492a.498.498 0 0 0-.477-.492h-2.393a.477.477 0 0 0-.479.492v8.326c0 .295.225.491.479.491zm4.547-6.4c-.286-.066-.48.194-.48.492V5.89c0 .296.194.394.48.493 1.594.491 2.36 1.833 2.36 4.128v.98c0 3.082-1.274 4.391-4.308 4.391h-2.84c-2.999 0-4.275-1.309-4.275-4.39v-.98c0-2.296.734-3.638 2.36-4.13.289-.098.48-.196.48-.492V3.402c0-.298-.191-.558-.48-.493-3.35.624-5.2 3.11-5.2 7.11v1.963c0 4.72 2.522 7.34 7.116 7.34h2.84c4.629 0 7.148-2.62 7.148-7.34V10.02c0-4-1.851-6.487-5.201-7.11zm-25.451 20.12c0 2.244-2.457 2.404-2.927 2.404h-5.817c-.506 0-2.925-.16-2.925-2.404v-2.125c0-2.243 2.457-2.363 2.925-2.363h5.817c.47 0 2.927.12 2.927 2.363v2.125zm-4.647-15.187h-8.193c-.312 0-.545.239-.545.6v2.365c0 .36.27.6.545.6h7.607c3.165 0 4.803 1.242 5.116 4.17-.82-.443-1.796-.564-2.81-.564h-6.402c-3.706 0-6.438 2.448-6.438 5.891v2.125c0 3.445 2.732 5.97 6.438 5.97h6.402c1.13 0 2.108-.285 2.967-.64.115.16.31.317.545.317h2.926c.275 0 .584-.24.584-.6V16.74c0-5.73-3.198-8.896-8.742-8.896zm-15.66-.001h-2.93a.582.582 0 0 0-.585.6v20.26h4.098V8.442c0-.36-.272-.6-.584-.6zm0-7.775h-2.93c-.312 0-.585.282-.585.601v3.006c0 .323.273.604.586.604h2.928c.348 0 .584-.281.584-.604V.668c0-.358-.272-.6-.584-.6zM190.64 20.023c0 3.806-1.558 5.411-5.23 5.411h-1.17c-3.668 0-5.229-1.605-5.229-5.411v-3.567c0-3.765 1.561-5.367 5.23-5.367h1.168c3.673 0 5.231 1.602 5.231 5.367v3.567zM194.152.067h-2.926c-.31 0-.586.282-.586.601v8.177c-1.365-.842-3.124-1.323-5.23-1.323h-1.755c-5.618 0-8.743 3.165-8.743 8.934v3.567c0 5.812 3.125 8.977 8.743 8.977h1.754c2.107 0 3.866-.48 5.231-1.322v.4c0 .36.277.599.586.599h2.926c.354 0 .585-.24.585-.6V.668c0-.358-.27-.6-.585-.6zm-37.533 16.39c0-3.766 1.599-5.368 5.23-5.368h1.13c3.708 0 5.23 1.602 5.23 5.367h-11.59zm6.949-8.935h-2.305c-5.62 0-8.74 3.165-8.74 8.934v3.328c0 5.73 3.163 8.893 8.74 8.893h8.116c.353 0 .587-.24.587-.6v-2.363c0-.363-.273-.6-.587-.6h-7.53c-3.549 0-5.112-1.484-5.23-5.091h15.107c.346 0 .583-.28.583-.602v-2.965c0-5.769-3.085-8.934-8.741-8.934zm-21.059 0c-1.873 0-3.51.681-4.643 1.764-1.171-1.083-2.732-1.764-4.647-1.764-1.088 0-2.07.239-2.962.641-.157-.24-.273-.32-.545-.32h-2.345a.58.58 0 0 0-.583.6v19.634c0 .36.272.6.627.6h2.923a.58.58 0 0 0 .585-.6V13.491c0-2.284 1.99-2.402 2.46-2.402.506 0 2.42.118 2.42 2.402v14.586c0 .36.309.6.584.6h2.966c.349 0 .545-.24.545-.6V13.491c0-2.284 1.99-2.402 2.539-2.402.43 0 2.42.118 2.42 2.402v14.586c0 .36.23.6.584.6h2.925c.352 0 .587-.24.587-.6V13.491c0-3.445-2.732-5.97-6.44-5.97zm-28.482 0h-.7c-2.108 0-3.865.481-5.232 1.323v-.402c0-.361-.31-.6-.586-.6h-2.926c-.349 0-.587.239-.587.6v19.634c0 .36.238.6.587.6h2.926a.58.58 0 0 0 .586-.6v-11.62c0-3.766 1.56-5.368 5.232-5.368h.154c3.632 0 5.191 1.602 5.191 5.367v11.621c0 .36.275.6.588.6h2.885c.35 0 .626-.24.626-.6v-11.62c0-5.77-3.123-8.935-8.744-8.935zm-29.124 8.934c0-3.765 1.602-5.367 5.23-5.367h1.131c3.71 0 5.232 1.602 5.232 5.367H84.903zm6.947-8.934h-2.302c-5.62 0-8.743 3.165-8.743 8.934v3.328c0 5.73 3.162 8.893 8.743 8.893h8.12c.349 0 .582-.24.582-.6v-2.363a.58.58 0 0 0-.583-.6h-7.534c-3.551 0-5.113-1.484-5.23-5.091h15.103c.352 0 .587-.28.587-.602v-2.965c0-5.769-3.082-8.934-8.743-8.934zm-29.467 8.934c0-3.765 1.6-5.367 5.23-5.367h1.132c3.707 0 5.228 1.602 5.228 5.367h-11.59zm6.948-8.934h-2.304c-5.62 0-8.743 3.165-8.743 8.934v3.328c0 5.73 3.164 8.893 8.743 8.893h8.118c.35 0 .585-.24.585-.6v-2.363c0-.363-.275-.6-.585-.6h-7.533c-3.55 0-5.111-1.484-5.229-5.091h15.104c.35 0 .583-.28.583-.602v-2.965c0-5.769-3.08-8.934-8.74-8.934zm-13.068.321h-4.995c-3.707 0-6.36 2.523-6.36 5.968v14.89l-.023.012 4.11-.011h.01v-14.89c0-2.324 2.421-2.403 2.93-2.403h4.328c.314 0 .585-.28.585-.602V8.443c0-.32-.31-.6-.585-.6zm-24.86 3.246h1.168c2.733 0 4.335.92 4.92 2.965.116.357.232.6.585.6h2.963c.355 0 .667-.243.588-.6-.74-4.207-3.705-6.532-8.469-6.532h-2.341c-5.62 0-8.743 3.165-8.743 8.934v3.567c0 5.812 3.123 8.977 8.743 8.977h2.341c4.764 0 7.729-2.325 8.47-6.532.078-.359-.234-.604-.589-.604h-2.963c-.353 0-.47.245-.584.604-.586 2.003-2.188 2.966-4.92 2.966h-1.17c-3.67 0-5.23-1.605-5.23-5.411v-3.567c0-3.765 1.56-5.367 5.23-5.367zm-17.98 5.045H7.025c-.467 0-2.927-.078-2.927-2.323v-.318c0-2.245 2.46-2.404 2.927-2.404h5.23c.429 0 2.457.119 2.849 1.8.038.321.234.604.584.604h2.928c.273 0 .583-.24.583-.603-.31-3.164-2.887-5.368-6.36-5.368H6.4c-3.708 0-6.4 2.523-6.4 5.97v.32c0 3.447 2.692 5.972 6.4 5.972h6.44c.43 0 2.887.079 2.887 2.325v.92c0 2.245-2.457 2.405-2.888 2.405H7.025c-.429 0-2.5-.121-2.812-1.804-.115-.32-.311-.6-.585-.6H.624a.524.524 0 0 0-.508.6C.351 26.755 2.926 29 6.44 29h6.983c3.71 0 6.403-2.524 6.403-5.97v-.921c0-3.447-2.694-5.975-6.403-5.975z"/>
</svg>
